<svg height="480pt" viewBox="0 -80 480 480" width="480pt" xmlns="http://www.w3.org/2000/svg"><path d="m24 8h432c8.835938 0 16 7.164062 16 16v272c0 8.835938-7.164062 16-16 16h-432c-8.835938 0-16-7.164062-16-16v-272c0-8.835938 7.164062-16 16-16zm0 0" fill="#5e8acc"/><path d="m8 72h464v-48c0-8.835938-7.164062-16-16-16h-432c-8.835938 0-16 7.164062-16 16zm0 0" fill="#5279b3"/><path d="m224 192c0 44.183594-35.816406 80-80 80s-80-35.816406-80-80 35.816406-80 80-80 80 35.816406 80 80zm0 0" fill="#ffd04a"/><path d="m144 104c-48.601562 0-88 39.398438-88 88s39.398438 88 88 88 88-39.398438 88-88c-.054688-48.578125-39.421875-87.945312-88-88zm0 160c-39.765625 0-72-32.234375-72-72s32.234375-72 72-72 72 32.234375 72 72c-.046875 39.746094-32.253906 71.953125-72 72zm0 0"/><path d="m168 144h-16v-8h-16v8h-16c-4.269531-.089844-8.394531 1.566406-11.414062 4.585938-3.019532 3.019531-4.675782 7.144531-4.585938 11.414062v24c-.089844 4.269531 1.566406 8.394531 4.585938 11.414062 3.019531 3.019532 7.144531 4.675782 11.414062 4.585938h16v24h-16v-8h-16v8c-.089844 4.269531 1.566406 8.394531 4.585938 11.414062 3.019531 3.019532 7.144531 4.675782 11.414062 4.585938h16v8h16v-8h16c4.550781-.148438 8.839844-2.160156 11.867188-5.5625 3.023437-3.402344 4.519531-7.902344 4.132812-12.4375v-22c.089844-4.269531-1.566406-8.394531-4.585938-11.414062-3.019531-3.019532-7.144531-4.675782-11.414062-4.585938h-16v-23.847656l16 .074218v7.773438h16v-8c.089844-4.269531-1.566406-8.394531-4.585938-11.414062-3.019531-3.019532-7.144531-4.675782-11.414062-4.585938zm0 56v22c-.046875.683594-.1875 1.355469-.410156 2h-15.589844v-24zm-32-16h-16v-24l16 .074219zm0 0"/><path d="m456 0h-432c-13.25.015625-23.984375 10.75-24 24v272c.015625 13.25 10.75 23.984375 24 24h432c13.25-.015625 23.984375-10.75 24-24v-272c-.015625-13.25-10.75-23.984375-24-24zm-432 16h432c4.414062.003906 7.996094 3.585938 8 8v40h-448v-40c.003906-4.414062 3.585938-7.996094 8-8zm432 288h-432c-4.414062-.003906-7.996094-3.585938-8-8v-216h448v216c-.003906 4.414062-3.585938 7.996094-8 8zm0 0"/><path d="m264 104h16v16h-16zm0 0"/><path d="m296 104h112v16h-112zm0 0"/><path d="m424 104h16v16h-16zm0 0"/><path d="m264 136h16v16h-16zm0 0"/><path d="m296 136h112v16h-112zm0 0"/><path d="m424 136h16v16h-16zm0 0"/><path d="m264 168h16v16h-16zm0 0"/><path d="m296 168h112v16h-112zm0 0"/><path d="m424 168h16v16h-16zm0 0"/><path d="m264 200h16v16h-16zm0 0"/><path d="m296 200h112v16h-112zm0 0"/><path d="m424 200h16v16h-16zm0 0"/><path d="m264 232h16v16h-16zm0 0"/><path d="m296 232h112v16h-112zm0 0"/><path d="m424 232h16v16h-16zm0 0"/><path d="m264 264h16v16h-16zm0 0"/><path d="m296 264h112v16h-112zm0 0"/><path d="m424 264h16v16h-16zm0 0"/></svg>