<?xml version="1.0" encoding="iso-8859-1"?>
<!-- Generator: Adobe Illustrator 19.0.0, SVG Export Plug-In . SVG Version: 6.00 Build 0)  -->
<svg version="1.1" id="Layer_1" xmlns="http://www.w3.org/2000/svg" xmlns:xlink="http://www.w3.org/1999/xlink" x="0px" y="0px"
	 viewBox="0 0 512 512" style="enable-background:new 0 0 512 512;" xml:space="preserve">
<polyline style="fill:#8DE0A8;" points="503.111,83.623 503.111,47.325 10.216,47.325 10.216,316.697 503.111,316.697 
	503.111,119.922 "/>
<g>
	<rect x="10.215" y="316.704" style="fill:#81CC96;" width="492.893" height="147.978"/>
	<path style="fill:#81CC96;" d="M196.481,85.534H94.28c0,25.321-20.532,45.853-45.853,45.853v101.246
		c25.321,0,45.853,20.532,45.853,45.853h102.201h120.364h102.201c0-25.321,20.532-45.853,45.853-45.853V131.386
		c-25.321,0-45.853-20.532-45.853-45.853H316.845"/>
</g>
<rect x="196.48" y="47.33" style="fill:#FCD577;" width="120.364" height="417.351"/>
<rect x="196.48" y="316.704" style="fill:#EAC36E;" width="120.364" height="147.978"/>
<path d="M502.447,93.177c5.277,0,9.553-4.277,9.553-9.553V47.325c0-5.276-4.276-9.553-9.553-9.553H9.553
	C4.277,37.773,0,42.05,0,47.325v269.372v147.978c0,5.276,4.277,9.553,9.553,9.553h492.895c5.277,0,9.553-4.277,9.553-9.553V316.697
	V119.922c0-5.276-4.276-9.553-9.553-9.553s-9.553,4.277-9.553,9.553v187.223H325.731v-19.107h92.651
	c5.277,0,9.553-4.277,9.553-9.553c0-20.016,16.284-36.3,36.3-36.3c5.277,0,9.553-4.277,9.553-9.553V131.386
	c0-5.276-4.276-9.553-9.553-9.553c-20.016,0-36.3-16.284-36.3-36.3c0-5.276-4.276-9.553-9.553-9.553h-92.651V56.878h167.163v26.746
	C492.895,88.9,497.17,93.177,502.447,93.177z M19.105,56.878h167.163v19.103H93.616c-5.276,0-9.553,4.277-9.553,9.553
	c0,20.016-16.284,36.3-36.3,36.3c-5.276,0-9.553,4.277-9.553,9.553v101.246c0,5.276,4.277,9.553,9.553,9.553
	c20.016,0,36.3,16.284,36.3,36.3c0,5.276,4.277,9.553,9.553,9.553h92.651v19.107H19.105V56.878z M19.105,400.237H56.04
	c5.276,0,9.553-4.277,9.553-9.553s-4.277-9.553-9.553-9.553H19.105v-17.883h167.163v17.883H87.882c-5.276,0-9.553,4.277-9.553,9.553
	s4.277,9.553,9.553,9.553h98.386v17.895H19.105V400.237z M186.269,344.144H19.105V326.25h167.163V344.144z M19.105,437.238h167.163
	v17.884H19.105V437.238z M205.374,455.122V326.25h101.252v128.872H205.374z M492.895,381.132H325.731v-17.883h167.163
	L492.895,381.132L492.895,381.132z M325.731,455.122v-54.885h167.163v17.895H347.701c-5.277,0-9.553,4.277-9.553,9.553
	c0,5.276,4.276,9.553,9.553,9.553h145.193v17.884H325.731z M492.895,326.25v17.894H325.731V326.25H492.895z M409.654,95.086
	c3.998,22.909,22.119,41.029,45.029,45.029v83.789c-22.909,3.999-41.031,22.12-45.029,45.029H325.73V95.086H409.654z
	 M306.626,307.145H205.374v-70.179c0-5.276-4.277-9.553-9.553-9.553c-5.276,0-9.553,4.277-9.553,9.553v31.967h-83.922
	c-3.999-22.909-22.12-41.029-45.029-45.029v-83.789c22.909-3.999,41.029-22.12,45.029-45.029h83.922v110.037
	c0,5.276,4.277,9.553,9.553,9.553s9.553-4.277,9.553-9.553V56.878h101.252V307.145z"/>
<g>
</g>
<g>
</g>
<g>
</g>
<g>
</g>
<g>
</g>
<g>
</g>
<g>
</g>
<g>
</g>
<g>
</g>
<g>
</g>
<g>
</g>
<g>
</g>
<g>
</g>
<g>
</g>
<g>
</g>
</svg>
